<svg class="svg-icon" style="width: 1em;height: 1em;vertical-align: middle;fill: #60B158;overflow: hidden;" viewBox="0 0 1024 1024" version="1.1" xmlns="http://www.w3.org/2000/svg"><path d="M746.666667 512a234.666667 234.666667 0 1 1 0 469.333333 234.666667 234.666667 0 0 1 0-469.333333z m10.666666-384A138.666667 138.666667 0 0 1 896 266.666667l0.042667 246.314666a276.010667 276.010667 0 0 0-64-30.293333L832 362.666667h-640v394.666666c0 41.216 33.450667 74.666667 74.666667 74.666667h216.064c7.338667 22.784 17.578667 44.288 30.250666 64.042667L266.666667 896A138.666667 138.666667 0 0 1 128 757.333333V266.666667A138.666667 138.666667 0 0 1 266.666667 128h490.666666z m102.229334 518.229333l-174.592 174.634667L635.733333 755.2a21.333333 21.333333 0 0 0-34.133333 25.6l64 85.333333a21.333333 21.333333 0 0 0 32.170667 2.261334l192-192a21.333333 21.333333 0 0 0-30.165334-30.165334zM757.333333 192H266.666667A74.666667 74.666667 0 0 0 192 266.666667V298.666667h640v-32a74.666667 74.666667 0 0 0-74.666667-74.666667z"  /></svg>